HIERARCHY
ROOT Hips
{
  OFFSET 196.326 95.9168 97.7182
  CHANNELS 6 Xposition Yposition Zposition Zrotation Xrotation Yrotation
  JOINT LeftUpLeg
  {
    OFFSET 8.64259 1.95398 -2.38835
    CHANNELS 3 Zrotation Xrotation Yrotation
    JOINT LeftLeg
    {
      OFFSET 43.7702 0 0
      CHANNELS 3 Zrotation Xrotation Yrotation
      JOINT LeftFoot
      {
        OFFSET 40.6238 0 0
        CHANNELS 3 Zrotation Xrotation Yrotation
        JOINT LeftToeBase
        {
          OFFSET 12.7242 0 0
          CHANNELS 3 Zrotation Xrotation Yrotation
          End Site
          {
            OFFSET 0 0 0
          }
        }
      }
    }
  }
  JOINT RightUpLeg
  {
    OFFSET -8.2249 1.95398 -2.59336
    CHANNELS 3 Zrotation Xrotation Yrotation
    JOINT RightLeg
    {
      OFFSET 43.5653 0 0
      CHANNELS 3 Zrotation Xrotation Yrotation
      JOINT RightFoot
      {
        OFFSET 40.6238 0 0
        CHANNELS 3 Zrotation Xrotation Yrotation
        JOINT RightToeBase
        {
          OFFSET 12.7242 0 0
          CHANNELS 3 Zrotation Xrotation Yrotation
          End Site
          {
            OFFSET 0 0 0
          }
        }
      }
    }
  }
  JOINT Spine
  {
    OFFSET 0.165834 0.87714 6.61349
    CHANNELS 3 Zrotation Xrotation Yrotation
    JOINT Spine1
    {
      OFFSET 7.38963 1.71661e-005 0
      CHANNELS 3 Zrotation Xrotation Yrotation
      JOINT Spine2
      {
        OFFSET 11.9445 1.14441e-005 0
        CHANNELS 3 Zrotation Xrotation Yrotation
        JOINT Spine3
        {
          OFFSET 14.7254 4.19617e-005 0
          CHANNELS 3 Zrotation Xrotation Yrotation
          JOINT Spine4
          {
            OFFSET 10.9679 0 0
            CHANNELS 3 Zrotation Xrotation Yrotation
            JOINT RightShoulder
            {
              OFFSET 2.46616 -1.6653 3.69651
              CHANNELS 3 Zrotation Xrotation Yrotation
              JOINT RightArm
              {
                OFFSET 13.0012 0 0
                CHANNELS 3 Zrotation Xrotation Yrotation
                JOINT RightForeArm
                {
                  OFFSET 28.7848 1.52588e-005 0
                  CHANNELS 3 Zrotation Xrotation Yrotation
                  JOINT RightHand
                  {
                    OFFSET 26.5688 1.52588e-005 0
                    CHANNELS 3 Zrotation Xrotation Yrotation
                    End Site
                    {
                      OFFSET 0 0 0
                    }
                  }
                }
              }
            }
            JOINT LeftShoulder
            {
              OFFSET 2.38034 -1.29275 -3.75231
              CHANNELS 3 Zrotation Xrotation Yrotation
              JOINT LeftArm
              {
                OFFSET 16.3182 6.10351e-005 0
                CHANNELS 3 Zrotation Xrotation Yrotation
                JOINT LeftForeArm
                {
                  OFFSET 27.0901 0 0
                  CHANNELS 3 Zrotation Xrotation Yrotation
                  JOINT LeftHand
                  {
                    OFFSET 24.5451 1.52588e-005 0
                    CHANNELS 3 Zrotation Xrotation Yrotation
                    End Site
                    {
                      OFFSET 0 0 0
                    }
                  }
                }
              }
            }
            JOINT Neck
            {
              OFFSET 5.0226 -0.0266342 0
              CHANNELS 3 Zrotation Xrotation Yrotation
              JOINT Head
              {
                OFFSET 6.69363 2.86102e-005 0
                CHANNELS 3 Zrotation Xrotation Yrotation
                End Site
                {
                  OFFSET 0 0 0
                }
              }
            }
          }
        }
      }
    }
  }
}
MOTION
Frames:	12
Frame Time:	0.0416667
-0.586126 92.4537 -53.8157 86.5242 -19.6162 85.4358 -173.254 -3.9364 89.9819 -24.4155 27.886 0.815189 62.0296 10.2062 18.0237 64.2808 30.9774 -16.0296 -178.371 34.4896 83.9279 -17.7566 11.2772 -1.6645 69.2999 -1.63845 -0.844667 55.9017 3.20211 8.41485 -1.37584 7.52287 -89.6931 11.8395 -2.59152 0.887723 0.170714 -2.54993 1.00097 -22.385 -2.73843 0.0672648 -2.37235 -2.73842 0.0672537 79.6803 -55.1665 -114.376 31.8508 -12.0819 33.4156 -7.07847 -19.87 -36.3628 -4.22466 -0.448866 2.85309 -99.7448 -37.927 59.4007 -12.7414 5.12562 -9.62406 8.56123 6.82568 -47.4754 13.9018 0.971058 3.04439 -3.69959 -15.1792 -4.39442 10.2547 -14.6779 -0.0901237 
6.77675 91.1613 -49.031 86.4259 -19.4073 87.2879 -173.32 -5.18937 93.8201 -29.76 29.8382 2.43577 56.5182 3.07713 12.636 70.6171 39.5779 -9.27051 179.804 35.5291 86.8096 -25.8819 14.2321 0.171575 66.0514 -1.80311 -0.959565 48.8931 2.71264 12.7926 -1.53282 7.39589 -90.043 12.0896 -3.06748 0.251558 0.422195 -3.05345 0.386438 -22.1412 -3.00112 -0.68283 -2.12849 -3.00114 -0.682836 79.4933 -55.8518 -114.386 29.9092 -11.7536 33.1444 -7.3493 -21.8879 -34.2489 -4.45477 -0.491326 3.58744 -99.8537 -38.0602 59.2852 -14.4149 4.71369 -7.94473 9.65638 8.12241 -46.8489 13.8236 0.927353 2.77467 -3.50877 -14.9178 -3.93919 9.49969 -14.2758 1.20519 
14.047 90.492 -44.4969 87.0582 -21.2585 90.4473 -173.263 -4.50284 97.4085 -36.0913 25.316 3.08708 43.561 -7.9234 3.37954 66.7301 42.4545 3.34915 178.482 35.7559 90.9274 -35.905 12.6336 1.2783 62.7782 -1.27093 -0.630582 45.4057 2.15081 14.2257 -1.47912 7.42468 -90.5131 12.0165 -3.18271 -0.676061 0.349254 -3.20934 -0.5352 -22.2103 -2.83227 -1.60199 -2.19763 -2.83229 -1.602 79.476 -55.0414 -114.708 27.798 -10.5906 30.683 -7.16718 -21.2131 -33.4844 -4.44131 -0.500793 4.28797 -100.88 -39.1882 58.156 -17.0875 4.65152 -3.27481 8.71644 7.0232 -46.1909 15.7033 1.01426 2.57159 -2.27253 -13.3129 -1.96 8.18917 -12.8441 1.32766 
20.3559 90.1654 -40.1972 89.1047 -24.6518 91.4094 -173.36 0.506434 97.8263 -49.8739 19.0974 2.33771 37.0728 -12.1362 1.7251 37.694 10.2604 3.48623 177.28 33.1012 93.3373 -43.6557 12.6006 1.62793 67.8459 -2.37719 -1.24659 37.2002 0.783929 20.7568 -1.16117 7.57187 -90.4993 11.7231 -2.54387 -0.728045 0.0545152 -2.57341 -0.615322 -22.495 -2.20739 -1.45921 -2.48235 -2.2074 -1.45921 80.342 -53.4576 -114.069 27.9896 -8.42401 26.9025 -7.35343 -17.6308 -35.3014 -5.27323 -0.521105 3.90658 -101.128 -39.6034 57.9573 -20.5448 6.69863 0.0495894 7.2399 7.07343 -43.2867 17.3485 1.11404 2.55468 -2.23071 -11.195 -1.83544 7.68081 -10.7001 1.77559 
26.6353 91.1617 -36.0011 89.6214 -27.5848 91.1019 -172.611 9.31583 96.1504 -59.7067 16.6075 0.989134 40.707 -9.17945 7.78766 49.1784 21.6032 -3.16786 178.788 27.7888 94.7377 -43.8236 12.2591 -0.29446 71.9905 -3.58815 -1.81469 35.5084 0.34376 19.5913 -0.745531 7.57371 -90.3733 11.7234 -1.65804 -0.570136 0.0534321 -1.68153 -0.4966 -22.4871 -1.41005 -1.04215 -2.47452 -1.41003 -1.04215 80.7667 -52.2269 -113.913 28.5832 -7.17543 22.9874 -7.63763 -12.9704 -40.4477 -8.43327 -0.652766 3.15603 -101.346 -40.2103 57.8962 -25.0552 7.48612 3.08405 7.0762 8.98938 -39.5632 16.5395 1.23128 3.55701 -3.0045 -9.01138 -1.96335 7.24794 -8.45684 2.43621 
32.9954 92.7978 -31.7835 89.8162 -29.1086 89.7232 -171.923 17.1243 93.2915 -59.9368 15.3763 -0.139416 46.7482 -4.81501 8.55049 54.6722 26.9283 -3.84468 -179.844 20.3874 94.8103 -39.5341 12.9648 -2.19657 74.8902 -4.21778 -2.05443 34.9946 0.220826 19.3758 -0.421324 7.52814 -90.1661 11.8169 -0.915935 -0.233726 0.146267 -0.925305 -0.193191 -22.3908 -0.803327 -0.498208 -2.37818 -0.80331 -0.498207 81.4834 -51.9636 -112.968 27.882 -6.30602 18.9515 -7.56484 -9.04687 -47.6605 -10.5929 -0.739857 2.76266 -100.995 -40.7096 58.6825 -30.0469 7.93004 6.24808 6.01524 9.64171 -35.306 13.5099 0.99078 3.3701 -4.45881 -7.16385 -1.30996 6.48386 -6.80779 1.80352 
39.3938 94.4503 -27.688 89.3699 -30.3339 87.9767 -171.342 22.3539 90.1122 -49.9647 13.8412 -1.38551 51.6583 -0.81239 11.242 58.7324 29.7698 -6.87219 -179.669 12.7539 93.8182 -33.3518 11.8212 -3.24601 74.8554 -4.07259 -1.99264 35.746 0.399388 18.5044 -0.119026 7.44373 -89.9231 11.9867 -0.20036 0.174772 0.315736 -0.192468 0.183409 -22.2195 -0.24362 0.106468 -2.20684 -0.243629 0.106472 80.5972 -51.9177 -114.276 26.218 -6.75437 15.2041 -9.8865 -8.63822 -53.4276 -14.8768 -0.898702 1.95606 -100.187 -41.0587 60.114 -34.6437 8.76552 9.70824 5.16385 11.7493 -31.427 13.712 1.03929 3.6144 -5.58236 -5.52219 -1.56948 5.2847 -5.1548 2.07942 
45.7114 95.0676 -24.0635 87.7777 -32.4314 86.3117 -171.257 25.487 88.3118 -32.6968 6.8901 -2.05743 54.7527 1.06322 10.0302 59.4062 33.0919 -0.410158 179.581 7.1852 92.4381 -28.8072 9.3951 -3.0961 75.1179 -4.30107 -2.08111 36.5621 0.580516 18.2998 0.291659 7.30726 -89.8158 12.258 0.666997 0.293255 0.58718 0.67926 0.263612 -21.9487 0.548022 0.480161 -1.93601 0.548017 0.480156 80.9859 -49.7944 -114.51 25.645 -7.1958 11.3179 -13.1852 -8.1006 -59.416 -15.5027 -1.0139 2.67334 -99.8014 -41.9137 61.0922 -38.1746 9.31304 13.4578 4.3344 13.4262 -28.8897 13.8365 1.05734 3.68426 -5.65643 -4.03453 -0.576687 4.49428 -3.77563 2.08449 
52.1984 94.8194 -20.8289 86.2906 -35.2838 85.87 -172.759 25.7979 89.3561 -11.0731 3.55651 -1.95187 57.8834 3.94526 10.9717 59.9203 34.603 1.73371 178.363 1.99635 91.655 -25.4208 6.1636 -2.57964 75.3783 -4.91377 -2.3465 39.0595 1.16848 18.8709 0.783915 7.27748 -89.808 12.3187 1.64906 0.197134 0.64882 1.65616 0.124327 -21.8936 1.51357 0.683748 -1.88089 1.51356 0.683731 82.6431 -47.251 -112.975 24.4044 -8.14756 5.795 -14.3063 -7.34455 -63.6454 -14.632 -0.904036 2.15828 -99.4166 -42.8683 62.0978 -40.3056 8.87725 17.0921 4.51805 14.79 -28.5151 15.2132 1.33566 4.82076 -4.28091 -2.84861 0.202722 3.12786 -2.75622 1.21688 
59.0843 93.8871 -17.6267 86.3215 -38.6642 86.7677 -174.29 28.9191 91.1391 -5.80276 6.01952 -0.722113 62.2137 6.37006 13.381 65.5371 38.8883 -1.38766 177.391 -1.71795 90.0844 -26.5168 0.776248 -3.26492 72.1938 -4.4554 -2.22344 46.6629 2.85306 18.2577 1.27186 7.32722 -89.8352 12.2219 2.60601 0.0378915 0.553612 2.60512 -0.0769175 -22.001 2.47405 0.819835 -1.98835 2.47405 0.819844 83.0875 -45.1682 -113.079 22.7075 -9.13681 2.61798 -16.5092 -6.67871 -67.9347 -14.526 -1.18992 4.68293 -98.1621 -43.6277 64.3534 -41.5777 7.76056 20.4182 4.12496 12.812 -28.5113 14.3623 1.18739 4.30202 -4.20152 -1.90358 0.221045 2.79992 -1.85678 0.768964 
66.7299 92.4182 -14.0607 87.2907 -40.9215 86.9966 -173.83 29.3768 91.0239 -9.46203 8.48064 -1.31349 59.6832 5.21548 13.5058 63.1447 37.7665 1.24224 176.716 -3.46665 87.7203 -33.0942 -4.50611 -5.34925 66.2407 -2.77598 -1.50426 57.0125 5.24537 17.8945 1.56994 7.3794 -89.7005 12.1168 3.26232 0.237288 0.449985 3.26959 0.0933153 -22.1146 3.04005 1.20767 -2.102 3.04005 1.20767 83.2158 -44.9412 -112.965 21.3009 -9.47303 1.67265 -16.9814 -7.23351 -67.157 -13.7145 -1.036 3.81736 -96.8182 -43.7602 66.4973 -42.5375 7.00962 22.2432 4.93688 15.5484 -27.644 14.2285 1.33486 5.37365 -4.80464 -1.21021 -0.584535 2.76718 -1.13457 0.19644 
74.9273 91.2409 -10.0685 88.1861 -40.3539 84.581 -172.181 31.1791 87.7377 -22.3358 10.7399 -2.89068 53.1582 -1.50341 10.594 62.5369 30.4843 -13.8347 175.875 -0.98728 83.4553 -43.9466 -2.16729 -6.55827 51.4673 0.786271 1.03668 53.4982 6.06064 31.6863 1.51133 7.42955 -89.2913 12.004 3.33935 1.05231 0.33707 3.38242 0.904166 -22.2218 2.8686 2.00786 -2.2092 2.86863 2.00786 82.492 -46.5504 -113.476 20.9023 -8.70794 3.95551 -16.4741 -7.80152 -64.9716 -13.7877 -1.00145 3.45032 -97.4364 -43.5161 65.4419 -42.3405 6.97336 22.198 3.76095 15.6114 -24.6843 13.8072 1.23773 4.95575 -5.60088 -1.26834 -2.11563 2.77976 -1.05667 0.201285 
